<svg width="16" height="16" viewBox="0 0 16 16" fill="none" xmlns="http://www.w3.org/2000/svg">
<path d="M6.51597 12.7439C6.17419 14.1204 6.68734 14.4055 7.60533 13.4006L11.4614 8.96982C12.3535 7.88086 12.1301 7.00594 10.8453 6.78722L8.98611 6.44291C8.8775 6.4228 8.80576 6.31844 8.82588 6.20983C8.82654 6.20625 8.8273 6.20269 8.82816 6.19914L9.54361 3.2472C9.88635 1.86195 9.3151 1.61108 8.45822 2.59275C7.22701 3.98097 6.29138 5.02966 5.65131 5.73882C5.42815 5.98607 5.06894 6.37199 4.57369 6.89658C3.4883 8.10102 4.05955 8.97451 5.31499 9.19324L7.09178 9.51175C7.2005 9.53124 7.27284 9.63518 7.25335 9.7439C7.2526 9.74808 7.25172 9.75224 7.2507 9.75637L6.51597 12.7439Z" fill="white"/>
</svg>
