<svg width="200" height="200" viewBox="0 0 200 200" fill="none" xmlns="http://www.w3.org/2000/svg">
<g clip-path="url(#clip0_173_41)">
<path d="M100 200C44.8598 200 0 155.14 0 100C0 44.8598 44.8598 0 100 0C155.14 0 200 44.8598 200 100C200 155.14 155.14 200 100 200Z" fill="#EFB832"/>
<g opacity="0.5">
<path d="M100 184.622C53.3395 184.622 15.3782 146.661 15.3782 100C15.3782 53.3391 53.3391 15.3777 100 15.3777C146.661 15.3777 184.623 53.3387 184.623 100C184.623 146.661 146.661 184.622 100 184.622ZM100 36.9547C65.2372 36.9547 36.9551 65.2367 36.9551 100C36.9551 134.763 65.2372 163.045 100 163.045C134.764 163.045 163.046 134.763 163.046 100C163.046 65.2367 134.763 36.9547 100 36.9547Z" fill="#AE8132"/>
</g>
<path d="M25.7668 104.734C27.8293 104.734 29.5012 103.062 29.5012 101C29.5012 98.9376 27.8293 97.2656 25.7668 97.2656C23.7044 97.2656 22.0325 98.9376 22.0325 101C22.0325 103.062 23.7044 104.734 25.7668 104.734Z" fill="#EFB832"/>
<path d="M173.485 104.734C175.547 104.734 177.219 103.062 177.219 101C177.219 98.9376 175.547 97.2656 173.485 97.2656C171.422 97.2656 169.75 98.9376 169.75 101C169.75 103.062 171.422 104.734 173.485 104.734Z" fill="#EFB832"/>
<path opacity="0.06" d="M100.047 199.906C125.655 199.906 151.263 190.159 170.758 170.664C209.748 131.674 209.748 68.2324 170.758 29.243C151.263 9.74727 125.655 0 100.047 0V199.906Z" fill="#040000"/>
<path d="M102.632 147.792C95.5493 147.792 88.9787 146.683 82.92 144.464C76.9467 142.16 71.7413 138.917 67.304 134.736C62.952 130.555 59.5387 125.648 57.064 120.016C54.5893 114.299 53.352 108.027 53.352 101.2C53.352 94.3733 54.5893 88.144 57.064 82.512C59.5387 76.7947 62.952 71.8453 67.304 67.664C71.7413 63.4827 76.9467 60.2827 82.92 58.064C88.9787 55.76 95.5493 54.608 102.632 54.608C110.909 54.608 118.291 56.0587 124.776 58.96C131.347 61.8613 136.808 66.0427 141.16 71.504L125.032 86.096C122.131 82.6827 118.931 80.08 115.432 78.288C112.019 76.496 108.179 75.6 103.912 75.6C100.243 75.6 96.872 76.1973 93.8 77.392C90.728 78.5867 88.0827 80.336 85.864 82.64C83.7307 84.8587 82.024 87.5467 80.744 90.704C79.5493 93.8613 78.952 97.36 78.952 101.2C78.952 105.04 79.5493 108.539 80.744 111.696C82.024 114.853 83.7307 117.584 85.864 119.888C88.0827 122.107 90.728 123.813 93.8 125.008C96.872 126.203 100.243 126.8 103.912 126.8C108.179 126.8 112.019 125.904 115.432 124.112C118.931 122.32 122.131 119.717 125.032 116.304L141.16 130.896C136.808 136.272 131.347 140.453 124.776 143.44C118.291 146.341 110.909 147.792 102.632 147.792Z" fill="#CC9322"/>
</g>
<defs>
<clipPath id="clip0_173_41">
<rect width="200" height="200" fill="white"/>
</clipPath>
</defs>
</svg>
