<svg width="10" height="10" viewBox="0 0 10 10" fill="none" xmlns="http://www.w3.org/2000/svg">
<g clip-path="url(#clip0_173_125)">
<path d="M5 10C2.24299 10 0 7.75701 0 5C0 2.24299 2.24299 0 5 0C7.75701 0 10 2.24299 10 5C10 7.75701 7.75701 10 5 10Z" fill="#EFB832"/>
<g opacity="0.5">
<path d="M5.00003 9.23112C2.66699 9.23112 0.768921 7.33305 0.768921 5C0.768921 2.66696 2.66697 0.76889 5.00003 0.76889C7.33308 0.76889 9.23115 2.66694 9.23115 5C9.23115 7.33307 7.33308 9.23112 5.00003 9.23112ZM5.00003 1.84774C3.26187 1.84774 1.84777 3.26184 1.84777 5C1.84777 6.73817 3.26187 8.15227 5.00003 8.15227C6.7382 8.15227 8.1523 6.73817 8.1523 5C8.1523 3.26184 6.73818 1.84774 5.00003 1.84774Z" fill="#AE8132"/>
</g>
<path d="M1.28828 5.23672C1.3914 5.23672 1.475 5.15312 1.475 5.05C1.475 4.94688 1.3914 4.86328 1.28828 4.86328C1.18516 4.86328 1.10156 4.94688 1.10156 5.05C1.10156 5.15312 1.18516 5.23672 1.28828 5.23672Z" fill="#EFB832"/>
<path d="M8.67415 5.23672C8.77727 5.23672 8.86086 5.15312 8.86086 5.05C8.86086 4.94688 8.77727 4.86328 8.67415 4.86328C8.57102 4.86328 8.48743 4.94688 8.48743 5.05C8.48743 5.15312 8.57102 5.23672 8.67415 5.23672Z" fill="#EFB832"/>
<path opacity="0.06" d="M5.00232 9.99529C6.28271 9.99529 7.56312 9.50795 8.53787 8.5332C10.4874 6.58371 10.4874 3.41162 8.53787 1.46215C7.5631 0.487363 6.28271 0 5.00232 0V9.99529Z" fill="#040000"/>
<path d="M5.095 7.07C4.81833 7.07 4.56167 7.02667 4.325 6.94C4.09167 6.85 3.88833 6.72333 3.715 6.56C3.545 6.39667 3.41167 6.205 3.315 5.985C3.21833 5.76167 3.17 5.51667 3.17 5.25C3.17 4.98333 3.21833 4.74 3.315 4.52C3.41167 4.29667 3.545 4.10333 3.715 3.94C3.88833 3.77667 4.09167 3.65167 4.325 3.565C4.56167 3.475 4.81833 3.43 5.095 3.43C5.41833 3.43 5.70667 3.48667 5.96 3.6C6.21667 3.71333 6.43 3.87667 6.6 4.09L5.97 4.66C5.85667 4.52667 5.73167 4.425 5.595 4.355C5.46167 4.285 5.31167 4.25 5.145 4.25C5.00167 4.25 4.87 4.27333 4.75 4.32C4.63 4.36667 4.52667 4.435 4.44 4.525C4.35667 4.61167 4.29 4.71667 4.24 4.84C4.19333 4.96333 4.17 5.1 4.17 5.25C4.17 5.4 4.19333 5.53667 4.24 5.66C4.29 5.78333 4.35667 5.89 4.44 5.98C4.52667 6.06667 4.63 6.13333 4.75 6.18C4.87 6.22667 5.00167 6.25 5.145 6.25C5.31167 6.25 5.46167 6.215 5.595 6.145C5.73167 6.075 5.85667 5.97333 5.97 5.84L6.6 6.41C6.43 6.62 6.21667 6.78333 5.96 6.9C5.70667 7.01333 5.41833 7.07 5.095 7.07Z" fill="white"/>
</g>
<defs>
<clipPath id="clip0_173_125">
<rect width="10" height="10" fill="white"/>
</clipPath>
</defs>
</svg>
