<svg width="20" height="20" viewBox="0 0 20 20" fill="none" xmlns="http://www.w3.org/2000/svg">
<path d="M3 10.999L2.95923 10.9989L2.77788 10.9879C2.2621 10.9316 1.78614 10.681 1.44752 10.286C0.712597 9.42855 0.811893 8.13771 1.6693 7.40279L8.21032 1.7962C9.24017 0.913474 10.7598 0.913474 11.7897 1.7962L18.3307 7.40279C18.7839 7.79125 19.0447 8.35836 19.0447 8.95527C19.0447 10.0845 18.1293 11 17 11V15.25C17 16.4926 15.9926 17.5 14.75 17.5H11.95C11.4253 17.5 11 17.0747 11 16.55V13.5C11 12.9477 10.5523 12.5 10 12.5C9.44771 12.5 9 12.9477 9 13.5V16.55C9 17.0747 8.57467 17.5 8.05 17.5H5.25C4.00736 17.5 3 16.4926 3 15.25V10.999ZM14.75 16C15.1642 16 15.5 15.6642 15.5 15.25V10.35C15.5 9.88056 15.8806 9.5 16.35 9.5H17C17.3008 9.5 17.5447 9.25611 17.5447 8.95527C17.5447 8.79624 17.4752 8.64516 17.3545 8.54167L10.8135 2.93508C10.3454 2.53385 9.65462 2.53385 9.18651 2.93508L2.64549 8.54167C2.41707 8.73746 2.39062 9.08135 2.58641 9.30977C2.67661 9.41501 2.80344 9.48177 2.9001 9.49345L3 9.5H3.65C4.11944 9.5 4.5 9.88056 4.5 10.35V15.25C4.5 15.6642 4.83578 16 5.25 16H7.5V13.5C7.5 12.1193 8.61929 11 10 11C11.3807 11 12.5 12.1193 12.5 13.5V16H14.75Z" fill="white"/>
</svg>
