<svg width="16" height="16" viewBox="0 0 16 16" fill="none" xmlns="http://www.w3.org/2000/svg">
<path d="M8 0C12.4172 0 16 3.58154 16 8C16 12.4185 12.4172 16 8 16C3.58154 16 0 12.4185 0 8C0 3.58154 3.58154 0 8 0ZM8 1.6C4.46523 1.6 1.6 4.46523 1.6 8C1.6 11.5348 4.46523 14.4 8 14.4C11.5338 14.4 14.4 11.5348 14.4 8C14.4 4.46523 11.5338 1.6 8 1.6ZM7.47108 4.03692C7.9129 4.03692 8.27108 4.3951 8.27108 4.83692V7.90407L11.2796 8.90871C11.6981 9.05038 11.9225 9.50449 11.7808 9.92299C11.6392 10.3415 11.1851 10.5659 10.7666 10.4242L7.21455 9.22176C6.88969 9.11178 6.67108 8.80697 6.67108 8.464V4.83692C6.67108 4.3951 7.02925 4.03692 7.47108 4.03692Z" fill="white"/>
</svg>
