<svg width="16" height="19" viewBox="0 0 16 19" fill="none" xmlns="http://www.w3.org/2000/svg">
<circle cx="8" cy="10" r="8" fill="#D9D9D9"/>
<path d="M12.2188 9.45312C12.0938 9.43229 11.9375 9.41667 11.75 9.40625C11.5729 9.39583 11.401 9.39062 11.2344 9.39062C11.0469 9.39062 10.849 9.39583 10.6406 9.40625C10.4219 9.41667 10.2031 9.42708 9.98438 9.4375C9.79688 9.44792 9.58333 9.46354 9.34375 9.48438C9.11458 9.49479 8.89062 9.51042 8.67188 9.53125C8.75521 9.48958 8.82812 9.43229 8.89062 9.35938C8.96354 9.28646 9.02604 9.21354 9.07812 9.14062C9.13021 9.05729 9.17708 8.96875 9.21875 8.875C9.27083 8.71875 9.26562 8.53125 9.20312 8.3125C9.14062 8.08333 9.02604 7.875 8.85938 7.6875C8.70312 7.5 8.5 7.35417 8.25 7.25C8.01042 7.13542 7.74479 7.10938 7.45312 7.17188C7.14062 7.24479 6.85938 7.35417 6.60938 7.5C6.36979 7.64583 6.16667 7.84896 6 8.10938C5.84375 8.35938 5.72917 8.67188 5.65625 9.04688C5.59375 9.41146 5.57812 9.84896 5.60938 10.3594C5.65104 10.9948 5.75521 11.5 5.92188 11.875C6.08854 12.25 6.29167 12.5312 6.53125 12.7188C6.77083 12.9062 7.03125 13.0208 7.3125 13.0625C7.60417 13.0938 7.89062 13.0938 8.17188 13.0625C8.36979 13.0208 8.55208 12.9323 8.71875 12.7969C8.85417 12.6823 8.97917 12.5156 9.09375 12.2969C9.20833 12.0781 9.26042 11.776 9.25 11.3906L11.1562 11.3125C10.9375 11.9271 10.6719 12.4167 10.3594 12.7812C10.0469 13.1354 9.74479 13.4115 9.45312 13.6094C9.10938 13.8385 8.76562 13.9948 8.42188 14.0781C7.99479 14.151 7.61458 14.1823 7.28125 14.1719C6.94792 14.151 6.64583 14.099 6.375 14.0156C6.10417 13.9323 5.85417 13.8281 5.625 13.7031C5.39583 13.5781 5.17708 13.4427 4.96875 13.2969C4.83333 13.2031 4.68229 13.0469 4.51562 12.8281C4.34896 12.6094 4.19271 12.349 4.04688 12.0469C3.90104 11.7344 3.78125 11.3906 3.6875 11.0156C3.59375 10.6406 3.55729 10.2552 3.57812 9.85938C3.59896 9.45312 3.69271 9.04688 3.85938 8.64062C4.02604 8.23438 4.29167 7.84375 4.65625 7.46875C5.20833 6.90625 5.79688 6.54167 6.42188 6.375C7.05729 6.19792 7.65625 6.15104 8.21875 6.23438C8.78125 6.30729 9.28125 6.46875 9.71875 6.71875C10.1562 6.96875 10.4635 7.23958 10.6406 7.53125C10.8177 7.82292 10.9479 8.04688 11.0312 8.20312C11.125 8.34896 11.1927 8.46354 11.2344 8.54688C11.2865 8.61979 11.3281 8.67708 11.3594 8.71875C11.401 8.75 11.4583 8.79688 11.5312 8.85938C11.5833 8.91146 11.6458 8.96875 11.7188 9.03125C11.7812 9.08333 11.8542 9.14583 11.9375 9.21875C12.0208 9.29167 12.1146 9.36979 12.2188 9.45312Z" fill="black" fill-opacity="0.7"/>
</svg>
